<?xml version="1.0" encoding="utf-8"?>
<!-- Generator: Adobe Illustrator 19.2.1, SVG Export Plug-In . SVG Version: 6.00 Build 0)  -->
<svg version="1.1" id="Capa_1" onclick="play" xmlns="http://www.w3.org/2000/svg" xmlns:xlink="http://www.w3.org/1999/xlink"
	 x="0px" y="0px" viewBox="0 0 128 128" enable-background="new 0 0 128 128" xml:space="preserve">
<path id="XMLID_1_" fill="#FFFFFF" d="M125.6,94.8L125.6,94.8C125.6,94.8,125.5,94.8,125.6,94.8c-0.1-0.1-0.1-0.1-0.1-0.1v0
	c-1.5-1-3-1.1-4-1.5c0,0,0,0-0.1,0c-6.5-2.1-12.1-6.5-16.4-11.9c-2.3-3-4.3-6.3-5.6-9.8c0,0,0,0,0,0c-0.5-1.5-0.5-3.2,0.2-4.2
	c0,0,0,0,0,0c1.2-1.7,3.3-2.8,5.6-3.6c0,0,0,0,0,0c2.5-0.9,5.3-1.9,7.6-3.9c0,0,0,0,0,0c0.4-0.3,0.8-0.8,1.1-1.4
	c0.1-0.2,0.1-0.3,0.2-0.5c0.2-0.6,0.2-1.3-0.1-2c0,0,0,0,0,0c-0.7-1.3-1.8-2-2.7-2.6h0c-1.4-0.8-3.1-0.9-4.6-0.4c0,0,0,0,0,0
	c0,0-30.7,14.1-30.7,14.1c-1.6,0.5,27.8-13.1,26.6-13c0,0-0.1,0-0.1,0c-1.7,0.3-3.3,0.4-4.6-0.1c0-0.2,0-0.6-0.1-1h0
	c-0.1-2.8,0.1-5.6,0.2-8.6c0,0,0,0,0,0c0.1-4.5,0.3-9.1-0.4-13.8c0,0,0,0,0-0.1c-1.5-7.9-6.5-14.7-12.9-19.2
	c-4.7-3.3-10.2-5.1-15.8-5.6c0,0,0,0,0,0c-1.9-0.2-3.8-0.2-5.7-0.2c-7.6,0-15.5,2-21.6,6.9c-4.6,3.6-8.3,8.4-10.5,13.7c0,0,0,0,0,0
	c-2.2,5.5-2,11.4-1.7,16.8v0c0.2,3.8,0.6,7.5,0.2,11c0,0.1,0,0.2-0.1,0.3c-1.7,0.3-3.6,0.2-5.4-0.2c0,0,0,0,0,0
	c-1.3-0.2-2.6-0.7-4.2-1.2c0,0-0.1,0-0.1,0c-1.5-0.3-2.9,0.1-4.1,0.9c0,0,0,0-0.1,0c0,0,0,0-0.1,0.1c-0.9,0.6-2.2,1.6-2.2,3.3
	c0,0.1,0,0.2,0,0.3c0,0,0,0,0,0c0.2,1,0.8,1.8,1.4,2.3c0.6,0.5,1.1,0.8,1.4,1.1c0,0,0.1,0,0.1,0.1c2.8,1.8,5.8,2.7,8.5,3.7
	c0,0,0,0,0,0c1.8,0.8,3.5,2.1,3.8,3.7c0.5,2-0.4,4.3-1.5,6.5v0c-3,5.9-7.5,11.1-12.9,14.8c-2.9,2-6.1,3.4-9.5,4.3c0,0-0.1,0-0.1,0.1
	c-0.7,0.3-2.3,0.4-3.4,2c-0.1,0.1-0.1,0.2-0.2,0.4c-0.3,1,0.1,2.1,0.5,2.7c0.5,0.6,1,0.9,1.4,1.1c0,0,0,0,0.1,0
	c2.8,1.6,6,2.3,8.8,3.1c0,0,0,0,0,0c2,0.5,3.9,0.7,5.5,1.4c0.1,0.1,0.2,0.6,0.6,1.5c0.5,1.6,0.7,3.4,1.3,5.3c0.2,0.5,0.6,1,1.2,1.1
	c1.3,0.3,2-0.2,2.1-0.2c0.1,0,0.1,0,0.2,0c4.8-0.8,9.5-1.6,13.9-0.5c0,0,0,0,0,0c4.6,1.2,8.5,4.3,13,7c0,0,0,0,0,0v0
	c3,1.9,6.4,3.7,10.4,3.8v0c0,0,0,0,0,0c3,0.2,5.9,0,8.8-0.2c0,0,0,0,0.1,0c2.5-0.2,4.8-1,6.9-2.4c0,0,0.1,0,0.1,0
	c4.7-2.7,8.9-5.9,13.5-7.9c0,0,0,0,0,0c1.5-0.5,3.3-0.5,5.4-0.6c0,0,0,0,0.1,0c3.8-0.1,7.6,0.1,11.4,0.6c0.1,0,0.3,0,0.4,0
	c0.5-0.1,1-0.4,1.3-0.7c0.3-0.3,0.3-0.6,0.4-0.8c0.1-0.4,0.2-0.6,0-0.3c0.1-0.1,0.1-0.2,0.1-0.3c0.7-2.3,1.1-4.3,2.2-5.6
	c0.5-0.5,1.4-0.7,2.3-0.7c0.1,0,0.1,0,0.2,0c3.3-0.4,6.2-1.6,9-2.6c0,0,0.1,0,0.1,0c1-0.4,2.6-1,3.7-2.4c0,0,0,0,0,0l0,0
	C127.3,97.3,126.8,95.6,125.6,94.8z"/>
</svg>
