<?xml version="1.0" encoding="utf-8"?>
<!-- Generator: Adobe Illustrator 19.2.1, SVG Export Plug-In . SVG Version: 6.00 Build 0)  -->
<svg version="1.1" id="Capa_1" xmlns="http://www.w3.org/2000/svg" xmlns:xlink="http://www.w3.org/1999/xlink" x="0px" y="0px"
	 viewBox="0 0 500 200" enable-background="new 0 0 500 200" xml:space="preserve">
<g>
	<path fill="#FEFEFE" d="M250,200c-82,0-164,0-246,0.1c-3.4,0-4.1-0.7-4.1-4.1C0,132,0,68-0.1,4c0-3.4,0.7-4.1,4.1-4.1
		C168,0,332,0,496-0.1c3.4,0,4.1,0.7,4.1,4.1c-0.1,64-0.1,128,0,192c0,3.4-0.7,4.1-4.1,4.1C414,200,332,200,250,200z"/>
	<path fill="#1D1C1D" d="M159.4,113.9c-5.3,1.9-10.3,2.5-15.8,3.3c5.9,10.1,7.1,20.3,3.5,31c-1.2,3.5-2.6,6.9-5.2,9.5
		c-5,5-11.5,4.1-15-2c-2.9-5-3.5-10.7-3.8-16.4c-0.1-3.3,0-6.6,0-10.1c-3.1,1.3-5.7,2.6-8.6,3.5c-14,4.3-24.9-4.7-23.4-19.3
		c0.6-5.5,2.5-10.7,5.6-15.3c2.3-3.4,5.5-5.7,9.5-6.8c5-1.3,10.4,0.2,13,3.9c3,4.2,2.2,8.4-0.1,12.6c-3.6,6.5-9.6,9.8-16.3,12.3
		c1.8,3.8,4.8,4.2,8.1,3.5c4.1-0.9,7.7-2.9,11.3-5c2.5-1.5,2.2-3.9,2.5-6.1c1.7-14.1,3.9-28,9.1-41.3c2-5.1,4.3-10.1,8.3-14
		c4.4-4.3,9.7-5.5,14-3c4.8,2.9,5.1,7.4,4.1,12.3c-2.9,13.6-9.8,25.3-17.2,36.8c-0.9,1.4-1.9,2.7-2.9,4.2c7.1,3.2,13,0.5,18.9-2.7
		c2.6-1.4,2.9-3.8,3.6-6.2c0.5-1.9,1.1-3.8,1.8-5.7c1-2.4,3.2-2.2,5.2-1.9c2,0.3,1.8,2.1,1.8,3.6c0,3-0.3,6-0.5,9.4
		c2.2-1.1,2.3-3.2,3.2-4.7c1.1-2,2.2-4.1,4-5.7c2.3-2,4.9-3.8,8.1-2.1c3.1,1.7,2,4.5,1.6,7.1c-0.4,2.5-1,4.9-1.2,7.4
		c-0.2,2.5-0.1,5.5,3.2,5.7c3.1,0.2,6.5-0.4,7.8-3.9c1.3-3.6,2.4-7.3,3.1-11c0.8-4,3.6-5.4,7.1-5.9c3.5-0.5,5.5,0.4,4.3,4.7
		c-2,7-3.7,14.2-5.3,21.3c-0.7,2.9-1.9,6.6,0.8,8.4c2.8,1.8,5.5-1.3,7.8-2.9c2.4-1.7,4.6-3.7,7-5.7c1.5,7.9,1.2,8.5-5,12.3
		c-3.4,2.1-7.1,3.6-11,4.5c-7.4,1.7-11.1-1.3-11.4-8.8c0-1.1-0.1-2.3-0.2-4c-4.5,1.3-9,2.3-12.7-1.3c-3.5-3.3-3.7-8-4.9-13.6
		c-2.7,7.2-5,13.4-7.3,19.5c-0.6,1.6-1.1,3.1-1.8,4.7c-0.9,2.3-2.1,4.3-5.1,3.8c-2.9-0.5-4-2.7-4.4-5.4
		C158.3,123.9,159.1,119.3,159.4,113.9z"/>
	<path fill="#1D1C1D" d="M472.2,110c-0.5,7.2-4.6,11.3-12.2,12c-6.7,0.6-9.5-2.6-12.8-15.6c-2.6,6.9-4.9,13.1-7.2,19.2
		c-0.4,1.1-0.7,2.2-1.2,3.3c-1.1,2.4-1.7,5.3-5.3,5.1c-3.3-0.3-4.2-2.8-5-5.7c-3.6,2.1-6.5,5.2-10.8,5.7c-4.8,0.6-7.2-2.6-9.3-6.1
		c-13.2,9-18.6,8.4-24.9-2.8c-3.4,2.9-6.8,5.9-11,7.6c-6.5,2.6-12.5,1.9-17.5-3c-2.1-2-3.4-1.6-5.6-0.6c-7,3.1-14.3,5.3-22.1,5
		c-4.8-0.2-9.4-1.1-11.3-6.4c-0.5-1.6-1.5-1.4-2.6-1.6c-3.8-0.7-5.1-3.4-2.3-5.7c9.5-7.6,16-17.8,23.8-26.8c1.5-1.7,3.4-2.5,5.8-2.5
		c1.9,0,3.8,0.4,4.8,2.1c1.1,1.8,0.6,3.8-0.9,5c-4.9,4-4.6,8.7-2.5,13.8c1.4,3.2-0.3,6.6,0.4,10.2c4.2-1.3,7.6-2.2,7.6-8.2
		c-0.1-6.5,2.5-12.7,6.7-17.9c3.3-4.2,7.7-6.4,13.1-5.9c4.4,0.5,8.1,2.4,9.6,6.9c1.4,4.1-0.1,7.9-2.7,11.2c-1.2,1.5-2.9,2.5-4.8,1.6
		c-1.9-0.9-2.2-2.7-2-4.7c0.3-2.4,2.7-5.9-0.9-6.7c-3.3-0.8-4.9,2.8-6,5.6c-1.8,4.4-2.6,8.9-2.2,13.7c0.6,7.4,5.6,10.5,12,6.9
		c5.9-3.4,11-7.6,13.7-14.5c3.2-8.4,8.5-15.4,17.7-18.4c2.5-0.8,4.9-1.3,6.8,1.2c0.6,0.9,1.5,1.1,2.6,1.2c6.3,0.9,6.5,1,5.5,7.5
		c-0.8,5.4-2.1,10.8-3,16.2c-0.3,2.1-0.8,4.8,1.3,6c2.1,1.2,4.1-0.9,5.7-2.2c3.7-3.1,6.7-6.5,7.3-11.9c0.5-4.9,2.2-9.7,3.4-14.6
		c0.7-3.1,2.7-4.7,5.8-3.9c3,0.7,2,3.4,2,5.4c0,2.5-0.3,4.9-0.5,7.6c2.2-1,2.3-3,3.1-4.5c1.5-2.8,3.1-5.5,5.9-7.3
		c2-1.3,4.3-2,6.5-0.5c2.2,1.5,2,3.6,1.6,5.8c-0.6,3.1-1.3,6.2-1.4,9.4c-0.1,4.5,2.2,6.1,6.4,4.6c2.8-1,5.5-2.3,7.7-4.4
		C473.6,107.2,472.2,108.9,472.2,110z"/>
	<path fill="#1D1C1D" d="M242,106.8c0.9-16.7,4.9-31.5,16.7-43.2c7.5-7.4,16.7-10.9,27.3-9.2c15,2.3,23.9,14.2,23.7,32
		c-0.2,14.2-3.8,27.7-12,39.5c-7.7,11-17.7,18.1-32,15.7c-12-2.1-20-11.3-22.6-25.4C242.5,112.8,242.3,109.5,242,106.8z"/>
	<path fill="#1D1C1D" d="M73.5,96.1c4.3-8.4,8.3-16.2,12.3-23.9c0.9-1.8,1.8-3.5,2.8-5.3c1.9-3.4,5.1-3.7,8.2-2.5
		c3.2,1.2,2.9,4.4,2,6.9c-1.8,4.5-3.9,8.8-6.2,13c-8.9,16.4-18.3,32.4-31.2,46.1c-2.4,2.6-4.9,5-8.2,6.4c-5.8,2.6-13.2,0.6-16.5-4.4
		c-0.8-1.2-1.4-2.5-0.6-3.7c1-1.5,2-0.1,3,0.3c5.5,2.1,11.4,0.5,16-4.8c4.4-5,7.7-10.8,10.8-16.7c0.7-1.3,0.6-2.5,0.1-3.8
		c-3.3-8-6.5-16-11.6-23.1c-1.5-2-3.1-3.9-5.2-5.3c-4.2-2.8-6.6-1.7-7.2,3.2c-0.1,0.9,0.3,2.2-1.2,2.3c-0.9,0.1-1.5-0.7-1.8-1.5
		c-1.7-3.7-2.4-7.7-1.7-11.7c0.5-2.8,3.2-3.6,5.8-3.7c5.7-0.3,10.3,2,14.3,5.8c6.4,5.9,10,13.6,13.7,21.2
		C71.7,92.5,72.5,94,73.5,96.1z"/>
	<path fill="#1F1E1F" d="M212.5,71c4.6,0.1,7.3,2.4,7.4,6.2c0.1,4.6-3.8,7.9-8.9,7.8c-4.5-0.1-7.1-2.5-7-6.5
		C203.8,74,207.4,70.9,212.5,71z"/>
	<path fill="#D1D1D1" d="M472.2,110c-0.5-0.9,0.5-2.5-1.1-3c0.4-0.6,1.1-1.1,1.5-0.5C473.4,107.7,473.2,109,472.2,110z"/>
	<path fill="#FBFBFB" d="M138.5,95.6c0.4-11.4,3.7-22.1,8.4-32.4c0.8-1.7,2.2-2.5,4.1-2.1c2.2,0.4,2.3,2.1,2.3,3.8
		c0.1,1.9-0.4,3.6-1.1,5.3C148.9,79.3,143.7,87.4,138.5,95.6z"/>
	<path fill="#FBFBFB" d="M134.3,112.9c2.9,3.1,4.4,5.7,4.9,8.9c1,7.6,1.6,15.2-0.1,22.8c-0.4,1.8-1,3.9-3.2,3.8
		c-2.2-0.1-1.9-2.4-2.2-3.9C132.2,134.3,133.1,124.1,134.3,112.9z"/>
	<path fill="#FAFAFA" d="M113.2,103.3c-0.1,3.5-6.4,9.5-9.8,9.6c-1,0-1.4-0.2-1.6-1.3c-0.6-3.1,3.1-10.7,6-12
		C111.1,98.1,113.3,99.6,113.2,103.3z"/>
	<path fill="#FCFCFC" d="M409.4,99.1c-2.3,7.7-2.7,15.5-6.1,22.6c-1.1,2.2-2.5,4.9-5.5,4.1c-3-0.8-2.9-3.8-2.9-6.2
		C395,110.6,401.6,100.9,409.4,99.1z"/>
	<path fill="#F9F9F9" d="M320,122.7c4-3.9,7.9-7.7,12.2-12c0.5,4.5,1,8.5,0,12.5c-1,3.6-4.6,4.9-7.9,3
		C322.8,125.3,321.5,123.9,320,122.7z"/>
	<path fill="#FEFEFE" d="M253.3,108.5c0.9-13.7,5.2-25.2,13.4-35.2c2.3-2.8,5.1-5.2,8.4-7c9.3-5.2,18.5-1.6,21.9,8.5
		c1.9,5.7,1.7,11.5,1,17.3c-1.4,11-4.2,21.6-10.8,30.7c-4.6,6.4-10.4,10.5-18.7,8.9c-8.4-1.7-12.3-7.9-14.2-15.7
		C253.7,113.3,253.6,110.4,253.3,108.5z"/>
</g>
</svg>
