<?xml version="1.0" encoding="utf-8"?>
<!-- Generator: Adobe Illustrator 19.2.1, SVG Export Plug-In . SVG Version: 6.00 Build 0)  -->
<svg version="1.1" id="Capa_1" onclick="play" xmlns="http://www.w3.org/2000/svg" xmlns:xlink="http://www.w3.org/1999/xlink"
	 x="0px" y="0px" viewBox="0 0 128 128" enable-background="new 0 0 128 128" xml:space="preserve">
<path id="XMLID_47_" fill="#FFFFFF" d="M128,24.9c-4.7,2.1-9.8,3.4-15.1,4.1c5.4-3.2,9.6-8.3,11.6-14.3c-5.1,3-10.7,5.1-16.7,6.3
	c-4.8-5-11.6-8.2-19.2-8.2c-14.5,0-26.3,11.6-26.3,25.9c0,2,0.2,4,0.7,5.9c-21.8-1.1-41.2-11.4-54.1-27c-2.3,3.8-3.6,8.3-3.6,13
	c0,9,4.6,16.9,11.7,21.5c-4.3-0.1-8.4-1.3-11.9-3.2c0,0.1,0,0.2,0,0.3c0,3.3,0.6,6.5,1.8,9.4c3.2,8.1,10.4,14.2,19.3,16
	c-2.2,0.6-4.5,0.9-6.9,0.9c-1.7,0-3.3-0.2-4.9-0.5c3.3,10.3,13,17.7,24.5,18c-9,6.9-20.3,11.1-32.6,11.1c-2.1,0-4.2-0.1-6.3-0.4
	c11.6,7.3,25.4,11.6,40.3,11.6c41.1,0,66.3-28.4,72.9-57.9c1.2-5.2,1.8-10.5,1.8-15.6c0-1.1,0-2.2-0.1-3.3
	C120,34.7,124.5,30.1,128,24.9z"/>
</svg>
