<?xml version="1.0" encoding="utf-8"?>
<!-- Generator: Adobe Illustrator 19.2.1, SVG Export Plug-In . SVG Version: 6.00 Build 0)  -->
<svg version="1.1" id="Capa_1" xmlns="http://www.w3.org/2000/svg" xmlns:xlink="http://www.w3.org/1999/xlink" x="0px" y="0px"
	 viewBox="0 0 50 20" enable-background="new 0 0 50 20" xml:space="preserve">
<g>
	<path d="M7.582,10.231c-0.009,0.029-0.3,0.409-0.875,1.14c-0.193,0.243-0.37,0.452-0.53,0.628s-0.306,0.321-0.439,0.437
		s-0.261,0.206-0.384,0.272c-0.123,0.065-0.243,0.111-0.36,0.138c-0.117,0.027-0.24,0.04-0.369,0.04
		c-0.117,0-0.236-0.026-0.356-0.079s-0.23-0.114-0.33-0.185s-0.184-0.141-0.252-0.209c-0.069-0.068-0.109-0.121-0.121-0.156
		c-0.018-0.023-0.034-0.057-0.048-0.101s-0.022-0.09-0.022-0.137c0-0.044,0.01-0.082,0.031-0.116
		c0.021-0.033,0.056-0.051,0.105-0.051c0.018,0,0.04,0.005,0.066,0.014c0.091,0.062,0.18,0.106,0.268,0.134
		c0.088,0.028,0.17,0.042,0.246,0.042c0.22,0,0.417-0.039,0.593-0.117c0.176-0.077,0.334-0.178,0.475-0.302
		c0.141-0.123,0.267-0.263,0.378-0.42s0.248-0.361,0.411-0.614c0.162-0.252,0.278-0.451,0.347-0.597s0.133-0.269,0.191-0.372
		C6.504,9.362,6.398,9.106,6.29,8.851s-0.221-0.5-0.338-0.733C5.834,7.885,5.715,7.668,5.594,7.469
		c-0.122-0.2-0.246-0.374-0.374-0.521C5.093,6.799,4.963,6.683,4.831,6.6S4.567,6.474,4.436,6.474c-0.07,0-0.127,0.009-0.169,0.026
		c-0.043,0.018-0.076,0.041-0.099,0.07s-0.04,0.063-0.048,0.101S4.106,6.748,4.106,6.786c0,0.044,0.003,0.088,0.009,0.132
		S4.124,7,4.124,7.032c0,0.05-0.013,0.081-0.038,0.092S4.033,7.142,4,7.142c-0.059,0-0.111-0.035-0.158-0.104
		S3.756,6.875,3.724,6.758S3.667,6.509,3.649,6.359C3.631,6.21,3.623,6.055,3.623,5.895c0-0.049,0.013-0.099,0.04-0.151
		s0.068-0.1,0.125-0.143c0.058-0.043,0.129-0.079,0.216-0.106c0.086-0.027,0.191-0.041,0.314-0.041c0.334,0,0.639,0.084,0.917,0.251
		C5.51,5.874,5.767,6.103,6.004,6.393c0.237,0.29,0.458,0.63,0.664,1.019s0.404,0.804,0.598,1.245
		c0.173-0.313,0.339-0.62,0.499-0.923c0.159-0.302,0.307-0.585,0.441-0.848c0.135-0.263,0.255-0.5,0.362-0.712
		c0.107-0.211,0.196-0.382,0.266-0.512c0.038-0.069,0.108-0.125,0.208-0.168c0.102-0.043,0.21-0.065,0.328-0.065
		c0.062,0,0.122,0.009,0.18,0.026c0.059,0.018,0.11,0.045,0.156,0.082C9.752,5.574,9.79,5.624,9.819,5.686s0.044,0.136,0.044,0.223
		c0,0.123-0.038,0.273-0.114,0.452C9.681,6.515,9.586,6.716,9.465,6.961S9.2,7.482,9.034,7.787S8.685,8.415,8.483,8.758
		s-0.415,0.69-0.637,1.038L7.582,10.231z"/>
	<path d="M10.647,12.45c-0.274,0-0.513-0.051-0.718-0.151c-0.205-0.102-0.376-0.238-0.513-0.41
		c-0.137-0.171-0.239-0.369-0.308-0.595c-0.068-0.225-0.103-0.461-0.103-0.708c0-0.162,0.031-0.355,0.092-0.579
		s0.125-0.423,0.19-0.596c0.066-0.174,0.148-0.339,0.247-0.497C9.634,8.756,9.75,8.617,9.882,8.497
		c0.132-0.12,0.281-0.215,0.446-0.286s0.348-0.106,0.548-0.106c0.165,0,0.317,0.026,0.458,0.079
		c0.141,0.053,0.263,0.126,0.368,0.222c0.104,0.095,0.186,0.21,0.244,0.344c0.059,0.135,0.088,0.286,0.088,0.452
		c0,0.178-0.06,0.377-0.178,0.597c-0.119,0.221-0.258,0.41-0.417,0.567c-0.158,0.158-0.347,0.298-0.566,0.421
		c-0.219,0.123-0.456,0.218-0.711,0.288c0.044,0.077,0.087,0.142,0.13,0.193c0.043,0.052,0.086,0.092,0.13,0.12
		c0.044,0.028,0.09,0.049,0.139,0.061c0.049,0.011,0.101,0.017,0.157,0.017c0.176,0,0.361-0.034,0.556-0.103
		c0.195-0.069,0.384-0.155,0.569-0.258c0.185-0.104,0.359-0.216,0.523-0.337s0.303-0.237,0.417-0.346l0.567,0.576
		c-0.258,0.274-0.532,0.518-0.822,0.729c-0.126,0.09-0.261,0.18-0.406,0.267c-0.145,0.088-0.297,0.165-0.457,0.233
		c-0.16,0.067-0.325,0.122-0.497,0.163C10.997,12.43,10.823,12.45,10.647,12.45z M10.061,10.357c0.106,0,0.221-0.026,0.346-0.079
		c0.125-0.053,0.241-0.121,0.349-0.204s0.212-0.195,0.315-0.335c0.103-0.14,0.154-0.256,0.154-0.348
		c0-0.128-0.024-0.235-0.073-0.318s-0.108-0.125-0.179-0.125c-0.126,0-0.234,0.023-0.324,0.069s-0.165,0.105-0.225,0.178
		c-0.06,0.073-0.109,0.156-0.146,0.249c-0.037,0.093-0.08,0.208-0.128,0.346c-0.048,0.137-0.076,0.25-0.082,0.339
		S10.061,10.294,10.061,10.357z"/>
	<path d="M12.223,12.616c0-0.015,0.003-0.104,0.011-0.268s0.023-0.381,0.048-0.653c0.024-0.271,0.053-0.586,0.085-0.942
		c0.032-0.356,0.077-0.732,0.136-1.128c0.058-0.395,0.127-0.8,0.206-1.216c0.08-0.416,0.174-0.821,0.283-1.214
		c0.109-0.394,0.234-0.765,0.375-1.113c0.141-0.349,0.298-0.653,0.473-0.915c0.175-0.261,0.371-0.467,0.586-0.619
		s0.452-0.228,0.709-0.228c0.1,0,0.204,0.017,0.313,0.051c0.11,0.034,0.21,0.09,0.3,0.167c0.091,0.077,0.166,0.179,0.226,0.306
		s0.09,0.283,0.09,0.468c0,0.173-0.028,0.371-0.083,0.595c-0.056,0.224-0.134,0.462-0.235,0.717
		c-0.101,0.254-0.22,0.519-0.357,0.793s-0.287,0.549-0.45,0.823c-0.163,0.273-0.334,0.542-0.513,0.807
		c-0.18,0.265-0.363,0.512-0.55,0.743l-0.009,0.07c0.062-0.025,0.108-0.042,0.139-0.05c0.031-0.008,0.063-0.012,0.097-0.012
		c0.041,0,0.074,0.003,0.099,0.01c0.025,0.006,0.048,0.013,0.068,0.021s0.042,0.015,0.064,0.021c0.022,0.007,0.048,0.01,0.08,0.01
		c0.29,0,0.546-0.034,0.769-0.103c0.222-0.069,0.41-0.146,0.563-0.23c0.178-0.096,0.334-0.209,0.466-0.337l-0.097,1.071
		c-0.193,0.106-0.396,0.189-0.606,0.249s-0.406,0.104-0.584,0.133c-0.208,0.032-0.417,0.053-0.628,0.062
		c0.113,0.193,0.215,0.393,0.306,0.601c0.079,0.179,0.15,0.378,0.214,0.599s0.097,0.443,0.097,0.669
		c0,0.026-0.004,0.082-0.012,0.167c-0.008,0.084-0.021,0.188-0.04,0.312c-0.018,0.123-0.044,0.258-0.078,0.408
		c-0.034,0.148-0.078,0.299-0.131,0.451s-0.119,0.299-0.195,0.441c-0.077,0.141-0.167,0.268-0.269,0.377
		c-0.103,0.109-0.221,0.197-0.354,0.266c-0.133,0.066-0.285,0.1-0.453,0.1c-0.16,0-0.3-0.035-0.419-0.109
		c-0.12-0.072-0.221-0.172-0.306-0.295c-0.084-0.125-0.155-0.27-0.212-0.434c-0.057-0.166-0.101-0.34-0.133-0.523
		c-0.032-0.186-0.055-0.373-0.068-0.564S12.223,12.794,12.223,12.616z M13.385,10.306c-0.012,0-0.025,0.034-0.04,0.101
		c-0.015,0.067-0.026,0.151-0.035,0.252c-0.008,0.101-0.02,0.245-0.035,0.432c-0.015,0.188-0.027,0.341-0.037,0.46
		s-0.018,0.232-0.023,0.34c-0.006,0.106-0.009,0.191-0.009,0.253c0,0.431,0.008,0.773,0.024,1.028s0.037,0.447,0.062,0.58
		c0.025,0.131,0.053,0.217,0.084,0.258c0.031,0.039,0.063,0.059,0.095,0.059c0.101,0,0.181-0.045,0.241-0.137
		c0.061-0.09,0.106-0.205,0.137-0.344c0.031-0.141,0.051-0.293,0.062-0.458s0.016-0.325,0.016-0.477
		c0-0.104-0.003-0.229-0.009-0.378s-0.015-0.312-0.027-0.484s-0.036-0.369-0.073-0.588c-0.037-0.218-0.089-0.382-0.156-0.492
		c-0.067-0.11-0.121-0.205-0.163-0.285S13.42,10.306,13.385,10.306z M14.497,5.713c-0.172,0.389-0.314,0.759-0.425,1.11
		c-0.102,0.321-0.178,0.606-0.229,0.855s-0.087,0.467-0.109,0.656c-0.021,0.189-0.042,0.363-0.063,0.524
		c0.188-0.336,0.382-0.664,0.583-0.982c0.2-0.319,0.375-0.618,0.526-0.897c0.15-0.279,0.279-0.549,0.385-0.81
		c0.107-0.26,0.16-0.446,0.16-0.557c0-0.155-0.022-0.268-0.065-0.34s-0.116-0.107-0.217-0.107c-0.16,0-0.268,0.035-0.323,0.105
		C14.676,5.328,14.602,5.476,14.497,5.713z"/>
	<path d="M15.8,11.532c0-0.129,0.007-0.279,0.022-0.451c0.015-0.17,0.034-0.352,0.059-0.542s0.054-0.384,0.088-0.583
		c0.034-0.197,0.077-0.408,0.13-0.633c0.053-0.224,0.098-0.411,0.136-0.56s0.076-0.272,0.114-0.369
		c0.023-0.064,0.047-0.116,0.07-0.154s0.05-0.068,0.082-0.09c0.03-0.022,0.068-0.037,0.114-0.044
		c0.045-0.007,0.102-0.011,0.169-0.011c0.076,0,0.135,0.004,0.178,0.011s0.074,0.025,0.095,0.053s0.033,0.068,0.037,0.121
		c0.005,0.053,0.007,0.125,0.007,0.215c0,0.108-0.007,0.262-0.022,0.461S17.06,9.331,17.065,9.48h0.048
		c0.059-0.117,0.132-0.271,0.22-0.461s0.18-0.349,0.277-0.475s0.207-0.232,0.33-0.319c0.123-0.086,0.265-0.129,0.426-0.129
		c0.056,0,0.11,0.01,0.163,0.029s0.099,0.046,0.138,0.081c0.04,0.035,0.071,0.079,0.095,0.13s0.035,0.109,0.035,0.173
		c0,0.05-0.007,0.12-0.022,0.208c-0.015,0.09-0.038,0.206-0.07,0.35s-0.056,0.262-0.07,0.354c-0.015,0.093-0.022,0.169-0.022,0.231
		c0,0.105,0.01,0.193,0.031,0.264s0.047,0.127,0.082,0.169c0.033,0.042,0.071,0.072,0.114,0.09c0.042,0.018,0.087,0.026,0.134,0.026
		c0.132,0,0.268-0.029,0.409-0.088s0.27-0.125,0.387-0.198c0.138-0.085,0.272-0.182,0.404-0.29l-0.066,1.028
		c-0.076,0.05-0.163,0.105-0.259,0.167s-0.2,0.12-0.31,0.173c-0.109,0.054-0.224,0.1-0.343,0.136
		c-0.118,0.037-0.239,0.055-0.362,0.055c-0.22,0-0.397-0.044-0.532-0.134c-0.135-0.089-0.242-0.207-0.321-0.351
		c-0.079-0.146-0.138-0.308-0.176-0.488c-0.038-0.18-0.069-0.362-0.092-0.547h-0.07l-0.787,2.193
		c-0.041,0.114-0.08,0.208-0.116,0.283c-0.037,0.074-0.074,0.136-0.112,0.183s-0.079,0.08-0.123,0.099
		c-0.044,0.02-0.092,0.028-0.145,0.028c-0.12,0-0.217-0.025-0.29-0.077c-0.073-0.051-0.129-0.119-0.169-0.206
		c-0.039-0.086-0.065-0.185-0.079-0.295C15.807,11.763,15.8,11.649,15.8,11.532z"/>
	<path d="M22.26,11.515c-0.105,0.097-0.237,0.199-0.394,0.31c-0.157,0.109-0.326,0.211-0.507,0.303
		c-0.182,0.093-0.367,0.17-0.556,0.231c-0.188,0.062-0.368,0.092-0.538,0.092c-0.152,0-0.281-0.021-0.385-0.063
		c-0.104-0.042-0.188-0.102-0.252-0.178s-0.111-0.17-0.138-0.279c-0.028-0.11-0.042-0.23-0.042-0.362c0-0.185,0.021-0.4,0.062-0.646
		c0.084-0.509,0.139-0.795,0.163-0.858c0.04-0.125,0.12-0.402,0.239-0.832c0.111-0.35,0.18-0.578,0.206-0.683
		c0.014-0.074,0.055-0.141,0.121-0.2c0.06-0.053,0.128-0.097,0.205-0.131c0.076-0.034,0.155-0.059,0.237-0.076
		c0.082-0.016,0.156-0.024,0.222-0.024c0.121,0,0.203,0.023,0.246,0.068c0.043,0.045,0.065,0.106,0.065,0.182
		c0,0.064-0.015,0.156-0.045,0.273c-0.03,0.118-0.064,0.251-0.103,0.402c-0.039,0.15-0.096,0.344-0.171,0.581
		c-0.076,0.236-0.127,0.438-0.155,0.605c-0.028,0.167-0.063,0.333-0.105,0.498c-0.042,0.165-0.063,0.315-0.063,0.449
		c0,0.132,0.015,0.237,0.044,0.314c0.029,0.078,0.089,0.116,0.18,0.116c0.105,0,0.223-0.036,0.352-0.109s0.259-0.162,0.391-0.267
		c0.132-0.104,0.261-0.211,0.387-0.322s0.237-0.207,0.334-0.286V11.515z M20.295,6.903c0-0.068,0.015-0.145,0.044-0.23
		c0.029-0.086,0.077-0.167,0.143-0.242c0.065-0.076,0.153-0.139,0.264-0.191c0.109-0.052,0.247-0.078,0.411-0.078
		c0.103,0,0.199,0.012,0.29,0.036c0.091,0.023,0.17,0.06,0.237,0.108s0.121,0.113,0.161,0.193c0.039,0.08,0.059,0.175,0.059,0.284
		c0,0.101-0.016,0.198-0.048,0.292c-0.032,0.095-0.083,0.179-0.154,0.253c-0.07,0.074-0.159,0.134-0.266,0.18
		s-0.235,0.069-0.384,0.069c-0.258,0-0.448-0.062-0.571-0.184S20.295,7.107,20.295,6.903z"/>
	<path d="M27.046,13.295c-0.438,0-0.83-0.089-1.18-0.266c-0.352-0.178-0.649-0.426-0.895-0.743
		c-0.246-0.318-0.435-0.697-0.567-1.137s-0.198-0.922-0.198-1.448c0-0.283,0.021-0.574,0.062-0.871
		c0.041-0.298,0.104-0.595,0.187-0.891c0.084-0.296,0.188-0.587,0.313-0.872c0.124-0.284,0.269-0.553,0.435-0.807
		c0.166-0.254,0.351-0.487,0.556-0.701c0.204-0.214,0.431-0.398,0.679-0.553s0.514-0.276,0.801-0.363
		c0.285-0.087,0.592-0.13,0.92-0.13c0.439,0,0.832,0.08,1.18,0.239c0.348,0.159,0.641,0.381,0.879,0.667s0.422,0.626,0.549,1.023
		c0.129,0.396,0.191,0.833,0.191,1.31c0,0.391-0.039,0.799-0.115,1.224c-0.078,0.425-0.191,0.843-0.342,1.253
		c-0.148,0.411-0.336,0.801-0.559,1.171c-0.223,0.371-0.479,0.697-0.768,0.978c-0.291,0.28-0.613,0.503-0.969,0.668
		C27.847,13.212,27.462,13.295,27.046,13.295z M27.151,12.274c0.234,0,0.451-0.046,0.654-0.137c0.201-0.092,0.387-0.218,0.557-0.377
		c0.168-0.159,0.322-0.346,0.461-0.561c0.139-0.213,0.262-0.443,0.371-0.688c0.107-0.245,0.203-0.499,0.283-0.762
		c0.08-0.263,0.146-0.523,0.199-0.78s0.092-0.504,0.117-0.742s0.037-0.454,0.037-0.649c0-0.284-0.031-0.55-0.092-0.8
		c-0.063-0.25-0.154-0.466-0.279-0.651s-0.281-0.33-0.471-0.436c-0.188-0.106-0.408-0.16-0.66-0.16c-0.27,0-0.531,0.066-0.783,0.197
		s-0.488,0.309-0.711,0.531c-0.223,0.223-0.428,0.481-0.611,0.775c-0.186,0.293-0.344,0.603-0.475,0.928
		c-0.132,0.325-0.234,0.656-0.308,0.992s-0.11,0.658-0.11,0.965c0,0.334,0.043,0.645,0.125,0.933
		c0.084,0.287,0.204,0.536,0.361,0.746c0.156,0.21,0.348,0.374,0.57,0.494C26.612,12.215,26.866,12.274,27.151,12.274z"/>
	<path d="M31.321,10.792c0.164-0.142,0.298-0.26,0.4-0.355c0.103-0.095,0.205-0.205,0.308-0.331s0.184-0.229,0.244-0.309
		c0.06-0.08,0.131-0.174,0.213-0.284c0.082-0.109,0.182-0.244,0.299-0.402c0.117-0.159,0.27-0.356,0.457-0.593
		c0.038-0.053,0.08-0.105,0.127-0.155s0.1-0.096,0.156-0.136c0.058-0.04,0.12-0.072,0.189-0.098c0.068-0.025,0.146-0.038,0.23-0.038
		c0.141,0,0.249,0.016,0.325,0.047c0.076,0.031,0.132,0.069,0.167,0.113c0.035,0.044,0.056,0.091,0.062,0.14
		s0.009,0.091,0.009,0.126c0,0.071-0.027,0.15-0.083,0.235c-0.056,0.086-0.117,0.169-0.185,0.249s-0.132,0.153-0.191,0.22
		c-0.061,0.067-0.095,0.116-0.104,0.149c0,0.092,0.007,0.175,0.021,0.251c0.013,0.076,0.031,0.149,0.054,0.222
		s0.045,0.149,0.069,0.231c0.023,0.082,0.047,0.175,0.068,0.282c0.022,0.106,0.025,0.253,0.009,0.439
		c-0.016,0.187-0.024,0.375-0.024,0.564c0.105-0.071,0.22-0.136,0.341-0.193c0.122-0.058,0.249-0.117,0.38-0.179
		c0.133-0.063,0.268-0.131,0.407-0.207c0.139-0.076,0.278-0.167,0.419-0.273l0.005,0.995c-0.182,0.136-0.392,0.263-0.631,0.381
		c-0.238,0.119-0.489,0.224-0.753,0.313c-0.264,0.091-0.529,0.162-0.797,0.214c-0.269,0.053-0.522,0.079-0.763,0.079
		c-0.173,0-0.334-0.016-0.483-0.047c-0.149-0.03-0.28-0.079-0.394-0.145c-0.112-0.066-0.204-0.152-0.274-0.259
		s-0.113-0.235-0.128-0.387c-0.041,0.009-0.081,0.015-0.12,0.018c-0.04,0.004-0.079,0.005-0.117,0.005
		c-0.047,0-0.091-0.001-0.132-0.004s-0.076-0.015-0.105-0.034c-0.029-0.019-0.053-0.05-0.07-0.093s-0.026-0.104-0.026-0.185
		c0-0.071,0.018-0.137,0.053-0.197s0.076-0.115,0.123-0.162c0.047-0.047,0.094-0.089,0.141-0.125S31.298,10.813,31.321,10.792z
		 M31.87,11.36c0.035,0,0.074,0.022,0.116,0.066c0.043,0.045,0.092,0.094,0.147,0.146c0.056,0.054,0.12,0.103,0.193,0.147
		c0.073,0.044,0.156,0.066,0.25,0.066c0.115,0,0.209-0.02,0.284-0.058c0.074-0.039,0.134-0.09,0.178-0.153
		c0.044-0.064,0.075-0.138,0.093-0.223c0.018-0.084,0.025-0.172,0.025-0.264c0-0.08-0.005-0.162-0.015-0.245
		c-0.011-0.083-0.009-0.186,0.004-0.309c0.014-0.123,0.011-0.218-0.009-0.284c-0.019-0.067-0.036-0.124-0.051-0.171L31.87,11.36z"/>
	<path d="M36.606,12.45c-0.271,0-0.51-0.05-0.715-0.149s-0.377-0.232-0.516-0.399s-0.243-0.36-0.313-0.58
		c-0.071-0.22-0.106-0.448-0.106-0.686c0-0.17,0.029-0.374,0.088-0.611c0.06-0.237,0.123-0.444,0.192-0.622
		c0.069-0.177,0.155-0.346,0.257-0.507s0.219-0.302,0.353-0.424c0.135-0.121,0.284-0.218,0.449-0.29
		c0.165-0.071,0.346-0.107,0.543-0.107c0.178,0,0.342,0.026,0.493,0.077s0.28,0.122,0.389,0.213
		c0.107,0.091,0.191,0.199,0.252,0.323s0.092,0.258,0.092,0.402c0,0.1-0.015,0.198-0.043,0.294c-0.029,0.097-0.084,0.21-0.167,0.341
		c-0.082,0.13-0.162,0.219-0.24,0.266c-0.077,0.047-0.165,0.07-0.264,0.07c-0.148,0-0.244-0.037-0.287-0.11
		c-0.071-0.114-0.094-0.215-0.067-0.303c0.009-0.047,0.035-0.155,0.079-0.325c0.006-0.023,0.007-0.076,0.005-0.158
		c0-0.07-0.008-0.129-0.022-0.176s-0.047-0.07-0.096-0.07c-0.12,0-0.222,0.028-0.307,0.086c-0.085,0.057-0.157,0.132-0.217,0.224
		c-0.06,0.093-0.119,0.223-0.177,0.392c-0.059,0.168-0.101,0.31-0.125,0.424s-0.04,0.224-0.046,0.327
		c-0.006,0.104-0.009,0.191-0.009,0.262c0,0.105,0.01,0.215,0.028,0.33c0.02,0.114,0.057,0.219,0.114,0.313
		c0.057,0.096,0.13,0.175,0.221,0.237c0.09,0.063,0.207,0.095,0.35,0.095c0.141,0,0.296-0.043,0.466-0.13
		c0.17-0.086,0.341-0.195,0.513-0.327c0.171-0.132,0.334-0.276,0.489-0.435s0.289-0.308,0.4-0.448l0.303,0.51
		c-0.22,0.313-0.457,0.593-0.712,0.839c-0.108,0.105-0.226,0.208-0.354,0.308c-0.127,0.1-0.261,0.188-0.399,0.266
		c-0.14,0.078-0.285,0.141-0.436,0.189C36.913,12.426,36.761,12.45,36.606,12.45z"/>
	<path d="M43.164,11.361c-0.067,0.095-0.158,0.206-0.271,0.333c-0.113,0.128-0.239,0.249-0.38,0.365
		c-0.141,0.115-0.292,0.213-0.453,0.293s-0.322,0.12-0.483,0.12c-0.194,0-0.356-0.062-0.486-0.186
		c-0.131-0.123-0.242-0.302-0.337-0.537c-0.071,0.081-0.158,0.164-0.262,0.248s-0.216,0.16-0.339,0.229
		c-0.122,0.068-0.25,0.124-0.383,0.167c-0.133,0.044-0.266,0.065-0.398,0.065c-0.141,0-0.278-0.028-0.411-0.086
		c-0.134-0.058-0.252-0.141-0.354-0.248c-0.103-0.108-0.184-0.24-0.246-0.396c-0.061-0.154-0.092-0.33-0.092-0.525
		c0-0.218,0.031-0.443,0.093-0.674c0.062-0.23,0.157-0.48,0.287-0.749s0.27-0.501,0.418-0.696c0.148-0.196,0.312-0.366,0.488-0.512
		s0.363-0.262,0.56-0.348c0.196-0.086,0.396-0.129,0.599-0.129c0.068,0,0.121,0.013,0.159,0.04c0.039,0.026,0.07,0.057,0.096,0.091
		c0.024,0.034,0.049,0.067,0.072,0.1s0.054,0.056,0.089,0.071c0.035,0.015,0.071,0.025,0.108,0.029
		c0.036,0.004,0.074,0.006,0.112,0.006c0.032,0,0.065,0,0.1-0.002s0.067-0.002,0.1-0.002c0.044,0,0.085,0.004,0.124,0.013
		c0.038,0.009,0.072,0.028,0.102,0.058c0.029,0.029,0.052,0.071,0.068,0.124c0.016,0.053,0.023,0.126,0.023,0.218
		c0,0.14-0.015,0.295-0.044,0.466c-0.029,0.171-0.063,0.346-0.101,0.525s-0.081,0.383-0.129,0.613
		c-0.049,0.229-0.072,0.422-0.072,0.579c0,0.135,0.012,0.239,0.037,0.315c0.024,0.075,0.078,0.113,0.16,0.113
		c0.062,0,0.126-0.016,0.193-0.046s0.136-0.07,0.204-0.12c0.069-0.049,0.138-0.104,0.207-0.167c0.068-0.063,0.134-0.127,0.195-0.194
		c0.144-0.157,0.289-0.334,0.436-0.531L43.164,11.361z M39.394,11.018c0,0.075,0.005,0.148,0.016,0.22
		c0.01,0.07,0.028,0.134,0.055,0.19c0.026,0.056,0.062,0.101,0.105,0.136c0.044,0.034,0.1,0.052,0.168,0.052
		c0.108,0,0.206-0.047,0.295-0.142c0.088-0.094,0.164-0.208,0.229-0.341c0.064-0.132,0.116-0.269,0.156-0.411
		s0.065-0.26,0.077-0.354l0.327-1.429c-0.12,0-0.236,0.03-0.352,0.089c-0.113,0.06-0.222,0.14-0.322,0.242
		c-0.102,0.102-0.194,0.218-0.279,0.349s-0.169,0.292-0.25,0.483c-0.083,0.192-0.141,0.36-0.174,0.505
		C39.41,10.753,39.394,10.89,39.394,11.018z"/>
	<path d="M42.813,11.532c0-0.129,0.007-0.279,0.021-0.451c0.015-0.17,0.035-0.352,0.06-0.542c0.025-0.19,0.055-0.384,0.088-0.583
		c0.034-0.197,0.077-0.408,0.13-0.633c0.053-0.224,0.098-0.411,0.137-0.56c0.037-0.149,0.075-0.272,0.113-0.369
		c0.023-0.064,0.047-0.116,0.07-0.154s0.051-0.068,0.082-0.09c0.03-0.022,0.068-0.037,0.114-0.044
		c0.045-0.007,0.102-0.011,0.169-0.011c0.076,0,0.136,0.004,0.178,0.011c0.043,0.007,0.074,0.025,0.095,0.053
		s0.033,0.068,0.037,0.121c0.005,0.053,0.007,0.125,0.007,0.215c0,0.108-0.008,0.262-0.021,0.461
		c-0.016,0.199-0.02,0.374-0.014,0.523h0.049c0.058-0.117,0.131-0.271,0.219-0.461s0.181-0.349,0.277-0.475s0.207-0.232,0.33-0.319
		c0.123-0.086,0.265-0.129,0.426-0.129c0.056,0,0.109,0.01,0.162,0.029s0.1,0.046,0.139,0.081c0.04,0.035,0.071,0.079,0.095,0.13
		s0.035,0.109,0.035,0.173c0,0.05-0.008,0.12-0.022,0.208c-0.015,0.09-0.038,0.206-0.07,0.35s-0.056,0.262-0.07,0.354
		c-0.015,0.093-0.021,0.169-0.021,0.231c0,0.105,0.01,0.193,0.031,0.264c0.02,0.07,0.047,0.127,0.081,0.169
		c0.033,0.042,0.071,0.072,0.114,0.09c0.042,0.018,0.087,0.026,0.134,0.026c0.132,0,0.269-0.029,0.409-0.088
		s0.269-0.125,0.387-0.198c0.137-0.085,0.271-0.182,0.404-0.29l-0.066,1.028c-0.076,0.05-0.162,0.105-0.26,0.167
		c-0.096,0.062-0.199,0.12-0.31,0.173c-0.109,0.054-0.224,0.1-0.343,0.136c-0.118,0.037-0.239,0.055-0.362,0.055
		c-0.22,0-0.397-0.044-0.532-0.134c-0.135-0.089-0.241-0.207-0.32-0.351c-0.079-0.146-0.138-0.308-0.176-0.488
		c-0.038-0.18-0.069-0.362-0.092-0.547h-0.07l-0.787,2.193c-0.041,0.114-0.08,0.208-0.116,0.283
		c-0.037,0.074-0.074,0.136-0.112,0.183s-0.079,0.08-0.123,0.099c-0.044,0.02-0.092,0.028-0.145,0.028
		c-0.121,0-0.218-0.025-0.291-0.077c-0.073-0.051-0.129-0.119-0.169-0.206c-0.039-0.086-0.065-0.185-0.079-0.295
		C42.82,11.763,42.813,11.649,42.813,11.532z"/>
</g>
</svg>
