<?xml version="1.0" encoding="utf-8"?>
<!-- Generator: Adobe Illustrator 19.2.1, SVG Export Plug-In . SVG Version: 6.00 Build 0)  -->
<svg version="1.1" id="Capa_1" xmlns="http://www.w3.org/2000/svg" xmlns:xlink="http://www.w3.org/1999/xlink" x="0px" y="0px"
	 viewBox="0 0 50 20" style="enable-background:new 0 0 50 20;" xml:space="preserve">
<g>
	<path d="M5.5,10.9c0,0-0.3,0.5-1,1.3c-0.2,0.3-0.4,0.5-0.6,0.7c-0.2,0.2-0.3,0.4-0.5,0.5c-0.1,0.1-0.3,0.2-0.4,0.3
		s-0.3,0.1-0.4,0.2s-0.3,0-0.4,0c-0.1,0-0.3,0-0.4-0.1s-0.3-0.1-0.4-0.2s-0.2-0.2-0.3-0.2C1.1,13.2,1,13.2,1,13.2c0,0,0-0.1-0.1-0.1
		s0-0.1,0-0.2c0,0,0-0.1,0-0.1c0,0,0.1-0.1,0.1-0.1c0,0,0,0,0.1,0c0.1,0.1,0.2,0.1,0.3,0.1c0.1,0,0.2,0,0.3,0c0.2,0,0.5,0,0.7-0.1
		c0.2-0.1,0.4-0.2,0.5-0.3c0.2-0.1,0.3-0.3,0.4-0.5s0.3-0.4,0.5-0.7s0.3-0.5,0.4-0.7c0.1-0.2,0.1-0.3,0.2-0.4
		C4.3,9.9,4.2,9.7,4.1,9.4S3.8,8.8,3.7,8.6C3.6,8.3,3.4,8.1,3.3,7.8S3,7.4,2.9,7.3C2.7,7.1,2.6,7,2.4,6.9C2.3,6.8,2.1,6.7,2,6.7
		c-0.1,0-0.1,0-0.2,0s-0.1,0-0.1,0.1s0,0.1-0.1,0.1s0,0.1,0,0.1c0,0,0,0.1,0,0.1s0,0.1,0,0.1c0,0.1,0,0.1,0,0.1s-0.1,0-0.1,0
		c-0.1,0-0.1,0-0.2-0.1S1.2,7.2,1.2,7S1.1,6.8,1.1,6.6c0-0.2,0-0.3,0-0.5c0-0.1,0-0.1,0-0.2s0.1-0.1,0.1-0.2c0.1,0,0.1-0.1,0.2-0.1
		c0.1,0,0.2,0,0.3,0c0.4,0,0.7,0.1,1,0.3c0.3,0.2,0.6,0.4,0.9,0.8s0.5,0.7,0.7,1.1s0.4,0.9,0.7,1.4c0.2-0.3,0.4-0.7,0.6-1
		S6,7.5,6.2,7.2c0.1-0.3,0.3-0.6,0.4-0.8S6.8,6,6.9,5.8c0-0.1,0.1-0.1,0.2-0.2c0.1,0,0.2-0.1,0.4-0.1c0.1,0,0.1,0,0.2,0
		s0.1,0,0.2,0.1S8,5.8,8,5.8C8,5.9,8,6,8,6.1c0,0.1,0,0.3-0.1,0.5C7.8,6.8,7.7,7,7.6,7.3S7.3,7.8,7.1,8.2C6.9,8.5,6.7,8.9,6.5,9.3
		S6,10,5.8,10.4L5.5,10.9z"/>
	<path d="M8.9,13.4c-0.3,0-0.6-0.1-0.8-0.2c-0.2-0.1-0.4-0.3-0.6-0.5c-0.2-0.2-0.3-0.4-0.3-0.7c-0.1-0.3-0.1-0.5-0.1-0.8
		c0-0.2,0-0.4,0.1-0.6s0.1-0.5,0.2-0.7c0.1-0.2,0.2-0.4,0.3-0.6C7.8,9.3,7.9,9.1,8.1,9s0.3-0.2,0.5-0.3c0.2-0.1,0.4-0.1,0.6-0.1
		c0.2,0,0.4,0,0.5,0.1s0.3,0.1,0.4,0.2c0.1,0.1,0.2,0.2,0.3,0.4c0.1,0.1,0.1,0.3,0.1,0.5c0,0.2-0.1,0.4-0.2,0.7s-0.3,0.5-0.5,0.6
		c-0.2,0.2-0.4,0.3-0.6,0.5c-0.2,0.1-0.5,0.2-0.8,0.3c0,0.1,0.1,0.2,0.1,0.2c0,0.1,0.1,0.1,0.1,0.1c0,0,0.1,0.1,0.2,0.1
		c0.1,0,0.1,0,0.2,0c0.2,0,0.4,0,0.6-0.1c0.2-0.1,0.4-0.2,0.6-0.3c0.2-0.1,0.4-0.2,0.6-0.4c0.2-0.1,0.3-0.3,0.5-0.4l0.6,0.6
		c-0.3,0.3-0.6,0.6-0.9,0.8c-0.1,0.1-0.3,0.2-0.5,0.3C10.4,13,10.2,13,10,13.1c-0.2,0.1-0.4,0.1-0.6,0.2C9.3,13.3,9.1,13.4,8.9,13.4
		z M8.3,11c0.1,0,0.2,0,0.4-0.1c0.1-0.1,0.3-0.1,0.4-0.2s0.2-0.2,0.4-0.4c0.1-0.2,0.2-0.3,0.2-0.4c0-0.1,0-0.3-0.1-0.4
		C9.4,9.5,9.3,9.5,9.3,9.5c-0.1,0-0.3,0-0.4,0.1C8.8,9.6,8.7,9.7,8.7,9.7C8.6,9.8,8.5,9.9,8.5,10c0,0.1-0.1,0.2-0.1,0.4
		c-0.1,0.2-0.1,0.3-0.1,0.4S8.3,11,8.3,11z"/>
	<path d="M10.7,13.6c0,0,0-0.1,0-0.3s0-0.4,0.1-0.7c0-0.3,0.1-0.7,0.1-1s0.1-0.8,0.2-1.3c0.1-0.4,0.1-0.9,0.2-1.4
		c0.1-0.5,0.2-0.9,0.3-1.3c0.1-0.4,0.3-0.9,0.4-1.2s0.3-0.7,0.5-1c0.2-0.3,0.4-0.5,0.7-0.7s0.5-0.3,0.8-0.3c0.1,0,0.2,0,0.3,0.1
		c0.1,0,0.2,0.1,0.3,0.2c0.1,0.1,0.2,0.2,0.3,0.3c0.1,0.1,0.1,0.3,0.1,0.5c0,0.2,0,0.4-0.1,0.7c-0.1,0.2-0.1,0.5-0.3,0.8
		c-0.1,0.3-0.2,0.6-0.4,0.9c-0.2,0.3-0.3,0.6-0.5,0.9c-0.2,0.3-0.4,0.6-0.6,0.9c-0.2,0.3-0.4,0.6-0.6,0.8l0,0.1c0.1,0,0.1,0,0.2-0.1
		c0,0,0.1,0,0.1,0c0,0,0.1,0,0.1,0c0,0,0.1,0,0.1,0c0,0,0,0,0.1,0c0,0,0.1,0,0.1,0c0.3,0,0.6,0,0.9-0.1c0.2-0.1,0.5-0.2,0.6-0.3
		c0.2-0.1,0.4-0.2,0.5-0.4L15,10.9c-0.2,0.1-0.4,0.2-0.7,0.3s-0.5,0.1-0.6,0.1c-0.2,0-0.5,0.1-0.7,0.1c0.1,0.2,0.2,0.4,0.3,0.7
		c0.1,0.2,0.2,0.4,0.2,0.7c0.1,0.2,0.1,0.5,0.1,0.7c0,0,0,0.1,0,0.2c0,0.1,0,0.2,0,0.3c0,0.1,0,0.3-0.1,0.5c0,0.2-0.1,0.3-0.1,0.5
		s-0.1,0.3-0.2,0.5c-0.1,0.2-0.2,0.3-0.3,0.4c-0.1,0.1-0.2,0.2-0.4,0.3c-0.1,0.1-0.3,0.1-0.5,0.1c-0.2,0-0.3,0-0.5-0.1
		c-0.1-0.1-0.2-0.2-0.3-0.3c-0.1-0.1-0.2-0.3-0.2-0.5c-0.1-0.2-0.1-0.4-0.1-0.6c0-0.2-0.1-0.4-0.1-0.6C10.7,14,10.7,13.7,10.7,13.6z
		 M11.9,11c0,0,0,0,0,0.1s0,0.2,0,0.3c0,0.1,0,0.3,0,0.5c0,0.2,0,0.4,0,0.5s0,0.3,0,0.4s0,0.2,0,0.3c0,0.5,0,0.9,0,1.1
		s0,0.5,0.1,0.6s0.1,0.2,0.1,0.3c0,0,0.1,0.1,0.1,0.1c0.1,0,0.2-0.1,0.3-0.2c0.1-0.1,0.1-0.2,0.2-0.4c0-0.2,0.1-0.3,0.1-0.5
		c0-0.2,0-0.4,0-0.5c0-0.1,0-0.3,0-0.4c0-0.2,0-0.3,0-0.5s0-0.4-0.1-0.7c0-0.2-0.1-0.4-0.2-0.5s-0.1-0.2-0.2-0.3S12,11,11.9,11z
		 M13.2,5.9c-0.2,0.4-0.3,0.8-0.5,1.2c-0.1,0.4-0.2,0.7-0.3,1c-0.1,0.3-0.1,0.5-0.1,0.7c0,0.2,0,0.4-0.1,0.6
		c0.2-0.4,0.4-0.7,0.6-1.1c0.2-0.4,0.4-0.7,0.6-1c0.2-0.3,0.3-0.6,0.4-0.9s0.2-0.5,0.2-0.6c0-0.2,0-0.3-0.1-0.4
		c0-0.1-0.1-0.1-0.2-0.1c-0.2,0-0.3,0-0.4,0.1C13.4,5.5,13.3,5.6,13.2,5.9z"/>
	<path d="M14.6,12.3c0-0.1,0-0.3,0-0.5s0-0.4,0.1-0.6c0-0.2,0.1-0.4,0.1-0.6s0.1-0.5,0.1-0.7s0.1-0.5,0.2-0.6s0.1-0.3,0.1-0.4
		c0-0.1,0.1-0.1,0.1-0.2s0.1-0.1,0.1-0.1s0.1,0,0.1,0s0.1,0,0.2,0c0.1,0,0.2,0,0.2,0s0.1,0,0.1,0.1s0,0.1,0,0.1s0,0.1,0,0.2
		c0,0.1,0,0.3,0,0.5s0,0.4,0,0.6h0.1c0.1-0.1,0.1-0.3,0.2-0.5s0.2-0.4,0.3-0.5s0.2-0.3,0.4-0.4s0.3-0.1,0.5-0.1c0.1,0,0.1,0,0.2,0
		s0.1,0.1,0.2,0.1s0.1,0.1,0.1,0.1s0,0.1,0,0.2c0,0.1,0,0.1,0,0.2s0,0.2-0.1,0.4s-0.1,0.3-0.1,0.4s0,0.2,0,0.3c0,0.1,0,0.2,0,0.3
		s0.1,0.1,0.1,0.2s0.1,0.1,0.1,0.1s0.1,0,0.1,0c0.1,0,0.3,0,0.5-0.1s0.3-0.1,0.4-0.2c0.2-0.1,0.3-0.2,0.4-0.3l-0.1,1.1
		c-0.1,0.1-0.2,0.1-0.3,0.2s-0.2,0.1-0.3,0.2c-0.1,0.1-0.2,0.1-0.4,0.2c-0.1,0-0.3,0.1-0.4,0.1c-0.2,0-0.4,0-0.6-0.1
		c-0.1-0.1-0.3-0.2-0.4-0.4s-0.2-0.3-0.2-0.5s-0.1-0.4-0.1-0.6h-0.1l-0.9,2.4c0,0.1-0.1,0.2-0.1,0.3s-0.1,0.2-0.1,0.2
		c0,0.1-0.1,0.1-0.1,0.1c0,0-0.1,0-0.2,0c-0.1,0-0.2,0-0.3-0.1c-0.1-0.1-0.1-0.1-0.2-0.2c0-0.1-0.1-0.2-0.1-0.3S14.6,12.5,14.6,12.3
		z"/>
	<path d="M21.8,12.3c-0.1,0.1-0.3,0.2-0.4,0.3S21,12.9,20.8,13s-0.4,0.2-0.6,0.3s-0.4,0.1-0.6,0.1c-0.2,0-0.3,0-0.4-0.1
		c-0.1,0-0.2-0.1-0.3-0.2c-0.1-0.1-0.1-0.2-0.2-0.3s0-0.3,0-0.4c0-0.2,0-0.4,0.1-0.7c0.1-0.6,0.2-0.9,0.2-1c0-0.1,0.1-0.4,0.3-0.9
		c0.1-0.4,0.2-0.6,0.2-0.8c0-0.1,0.1-0.2,0.1-0.2c0.1-0.1,0.1-0.1,0.2-0.1c0.1,0,0.2-0.1,0.3-0.1c0.1,0,0.2,0,0.2,0
		c0.1,0,0.2,0,0.3,0.1c0,0.1,0.1,0.1,0.1,0.2c0,0.1,0,0.2-0.1,0.3c0,0.1-0.1,0.3-0.1,0.4c0,0.2-0.1,0.4-0.2,0.6
		c-0.1,0.3-0.1,0.5-0.2,0.7c0,0.2-0.1,0.4-0.1,0.6c0,0.2-0.1,0.3-0.1,0.5c0,0.1,0,0.3,0,0.3s0.1,0.1,0.2,0.1c0.1,0,0.2,0,0.4-0.1
		c0.1-0.1,0.3-0.2,0.4-0.3c0.1-0.1,0.3-0.2,0.4-0.4c0.1-0.1,0.3-0.2,0.4-0.3V12.3z M19.6,7.2c0-0.1,0-0.2,0-0.3s0.1-0.2,0.2-0.3
		c0.1-0.1,0.2-0.2,0.3-0.2s0.3-0.1,0.5-0.1c0.1,0,0.2,0,0.3,0s0.2,0.1,0.3,0.1s0.1,0.1,0.2,0.2s0.1,0.2,0.1,0.3c0,0.1,0,0.2-0.1,0.3
		c0,0.1-0.1,0.2-0.2,0.3S21,7.8,20.9,7.9C20.8,7.9,20.6,8,20.5,8c-0.3,0-0.5-0.1-0.6-0.2S19.6,7.4,19.6,7.2z"/>
	<path d="M27.1,14.3c-0.5,0-0.9-0.1-1.3-0.3c-0.4-0.2-0.7-0.5-1-0.8s-0.5-0.8-0.6-1.3c-0.1-0.5-0.2-1-0.2-1.6c0-0.3,0-0.6,0.1-1
		c0-0.3,0.1-0.7,0.2-1c0.1-0.3,0.2-0.7,0.3-1c0.1-0.3,0.3-0.6,0.5-0.9c0.2-0.3,0.4-0.5,0.6-0.8s0.5-0.4,0.8-0.6
		c0.3-0.2,0.6-0.3,0.9-0.4c0.3-0.1,0.7-0.1,1-0.1c0.5,0,0.9,0.1,1.3,0.3c0.4,0.2,0.7,0.4,1,0.7c0.3,0.3,0.5,0.7,0.6,1.1
		c0.1,0.4,0.2,0.9,0.2,1.5c0,0.4,0,0.9-0.1,1.4c-0.1,0.5-0.2,0.9-0.4,1.4s-0.4,0.9-0.6,1.3s-0.5,0.8-0.9,1.1s-0.7,0.6-1.1,0.7
		C28,14.2,27.6,14.3,27.1,14.3z M27.2,13.2c0.3,0,0.5-0.1,0.7-0.2s0.4-0.2,0.6-0.4c0.2-0.2,0.4-0.4,0.5-0.6c0.2-0.2,0.3-0.5,0.4-0.8
		c0.1-0.3,0.2-0.6,0.3-0.8c0.1-0.3,0.2-0.6,0.2-0.9c0.1-0.3,0.1-0.6,0.1-0.8c0-0.3,0-0.5,0-0.7c0-0.3,0-0.6-0.1-0.9
		s-0.2-0.5-0.3-0.7c-0.1-0.2-0.3-0.4-0.5-0.5c-0.2-0.1-0.5-0.2-0.7-0.2c-0.3,0-0.6,0.1-0.9,0.2s-0.5,0.3-0.8,0.6S26.4,7,26.2,7.4
		c-0.2,0.3-0.4,0.7-0.5,1s-0.3,0.7-0.3,1.1s-0.1,0.7-0.1,1.1c0,0.4,0,0.7,0.1,1c0.1,0.3,0.2,0.6,0.4,0.8c0.2,0.2,0.4,0.4,0.6,0.5
		C26.6,13.1,26.9,13.2,27.2,13.2z"/>
	<path d="M31.9,11.5c0.2-0.2,0.3-0.3,0.4-0.4s0.2-0.2,0.3-0.4c0.1-0.1,0.2-0.3,0.3-0.3c0.1-0.1,0.1-0.2,0.2-0.3
		c0.1-0.1,0.2-0.3,0.3-0.4C33.6,9.5,33.8,9.3,34,9c0-0.1,0.1-0.1,0.1-0.2c0.1-0.1,0.1-0.1,0.2-0.2s0.1-0.1,0.2-0.1
		c0.1,0,0.2,0,0.3,0c0.2,0,0.3,0,0.4,0.1c0.1,0,0.1,0.1,0.2,0.1s0.1,0.1,0.1,0.2c0,0.1,0,0.1,0,0.1c0,0.1,0,0.2-0.1,0.3
		c-0.1,0.1-0.1,0.2-0.2,0.3C35,9.6,35,9.7,34.9,9.8c-0.1,0.1-0.1,0.1-0.1,0.2c0,0.1,0,0.2,0,0.3s0,0.2,0.1,0.2
		c0,0.1,0.1,0.2,0.1,0.3c0,0.1,0.1,0.2,0.1,0.3c0,0.1,0,0.3,0,0.5c0,0.2,0,0.4,0,0.6c0.1-0.1,0.2-0.2,0.4-0.2
		c0.1-0.1,0.3-0.1,0.4-0.2c0.1-0.1,0.3-0.1,0.5-0.2c0.2-0.1,0.3-0.2,0.5-0.3l0,1.1c-0.2,0.2-0.4,0.3-0.7,0.4
		c-0.3,0.1-0.5,0.2-0.8,0.3c-0.3,0.1-0.6,0.2-0.9,0.2s-0.6,0.1-0.8,0.1c-0.2,0-0.4,0-0.5-0.1s-0.3-0.1-0.4-0.2
		c-0.1-0.1-0.2-0.2-0.3-0.3c-0.1-0.1-0.1-0.3-0.1-0.4c0,0-0.1,0-0.1,0c0,0-0.1,0-0.1,0c-0.1,0-0.1,0-0.1,0s-0.1,0-0.1,0
		s-0.1-0.1-0.1-0.1s0-0.1,0-0.2c0-0.1,0-0.2,0.1-0.2s0.1-0.1,0.1-0.2s0.1-0.1,0.2-0.1C31.8,11.6,31.8,11.5,31.9,11.5z M32.5,12.2
		c0,0,0.1,0,0.1,0.1c0,0,0.1,0.1,0.2,0.2c0.1,0.1,0.1,0.1,0.2,0.2c0.1,0,0.2,0.1,0.3,0.1c0.1,0,0.2,0,0.3-0.1c0.1,0,0.1-0.1,0.2-0.2
		c0-0.1,0.1-0.2,0.1-0.2c0-0.1,0-0.2,0-0.3c0-0.1,0-0.2,0-0.3c0-0.1,0-0.2,0-0.3c0-0.1,0-0.2,0-0.3c0-0.1,0-0.1-0.1-0.2L32.5,12.2z"
		/>
	<path d="M37.7,13.4c-0.3,0-0.6-0.1-0.8-0.2c-0.2-0.1-0.4-0.3-0.6-0.4s-0.3-0.4-0.3-0.6c-0.1-0.2-0.1-0.5-0.1-0.8
		c0-0.2,0-0.4,0.1-0.7c0.1-0.3,0.1-0.5,0.2-0.7s0.2-0.4,0.3-0.6c0.1-0.2,0.2-0.3,0.4-0.5c0.1-0.1,0.3-0.2,0.5-0.3s0.4-0.1,0.6-0.1
		c0.2,0,0.4,0,0.5,0.1s0.3,0.1,0.4,0.2s0.2,0.2,0.3,0.4s0.1,0.3,0.1,0.4c0,0.1,0,0.2,0,0.3c0,0.1-0.1,0.2-0.2,0.4s-0.2,0.2-0.3,0.3
		c-0.1,0.1-0.2,0.1-0.3,0.1c-0.2,0-0.3,0-0.3-0.1c-0.1-0.1-0.1-0.2-0.1-0.3c0-0.1,0-0.2,0.1-0.4c0,0,0-0.1,0-0.2c0-0.1,0-0.1,0-0.2
		c0-0.1-0.1-0.1-0.1-0.1c-0.1,0-0.2,0-0.3,0.1s-0.2,0.1-0.2,0.2s-0.1,0.2-0.2,0.4s-0.1,0.3-0.1,0.5s0,0.2-0.1,0.4c0,0.1,0,0.2,0,0.3
		c0,0.1,0,0.2,0,0.4c0,0.1,0.1,0.2,0.1,0.3c0.1,0.1,0.1,0.2,0.2,0.3c0.1,0.1,0.2,0.1,0.4,0.1c0.2,0,0.3,0,0.5-0.1
		c0.2-0.1,0.4-0.2,0.6-0.4s0.4-0.3,0.5-0.5c0.2-0.2,0.3-0.3,0.4-0.5l0.3,0.6c-0.2,0.3-0.5,0.7-0.8,0.9c-0.1,0.1-0.3,0.2-0.4,0.3
		c-0.1,0.1-0.3,0.2-0.4,0.3c-0.2,0.1-0.3,0.2-0.5,0.2S37.9,13.4,37.7,13.4z"/>
	<path d="M45,12.2c-0.1,0.1-0.2,0.2-0.3,0.4s-0.3,0.3-0.4,0.4s-0.3,0.2-0.5,0.3c-0.2,0.1-0.4,0.1-0.5,0.1c-0.2,0-0.4-0.1-0.5-0.2
		c-0.1-0.1-0.3-0.3-0.4-0.6c-0.1,0.1-0.2,0.2-0.3,0.3C42,13,41.8,13,41.7,13.1c-0.1,0.1-0.3,0.1-0.4,0.2c-0.1,0-0.3,0.1-0.4,0.1
		c-0.2,0-0.3,0-0.5-0.1c-0.1-0.1-0.3-0.2-0.4-0.3c-0.1-0.1-0.2-0.3-0.3-0.4c-0.1-0.2-0.1-0.4-0.1-0.6c0-0.2,0-0.5,0.1-0.8
		c0.1-0.3,0.2-0.5,0.3-0.8c0.1-0.3,0.3-0.6,0.5-0.8s0.3-0.4,0.5-0.6c0.2-0.2,0.4-0.3,0.6-0.4s0.4-0.1,0.7-0.1c0.1,0,0.1,0,0.2,0
		c0,0,0.1,0.1,0.1,0.1c0,0,0.1,0.1,0.1,0.1c0,0,0.1,0.1,0.1,0.1s0.1,0,0.1,0c0,0,0.1,0,0.1,0c0,0,0.1,0,0.1,0s0.1,0,0.1,0
		c0,0,0.1,0,0.1,0s0.1,0,0.1,0.1c0,0,0.1,0.1,0.1,0.1c0,0.1,0,0.1,0,0.2c0,0.2,0,0.3,0,0.5c0,0.2-0.1,0.4-0.1,0.6
		c0,0.2-0.1,0.4-0.1,0.7c-0.1,0.3-0.1,0.5-0.1,0.6c0,0.1,0,0.3,0,0.3s0.1,0.1,0.2,0.1c0.1,0,0.1,0,0.2-0.1c0.1,0,0.2-0.1,0.2-0.1
		s0.2-0.1,0.2-0.2s0.1-0.1,0.2-0.2c0.2-0.2,0.3-0.4,0.5-0.6L45,12.2z M40.8,11.8c0,0.1,0,0.2,0,0.2c0,0.1,0,0.1,0.1,0.2
		c0,0.1,0.1,0.1,0.1,0.2c0,0,0.1,0.1,0.2,0.1c0.1,0,0.2-0.1,0.3-0.2c0.1-0.1,0.2-0.2,0.3-0.4c0.1-0.1,0.1-0.3,0.2-0.5
		c0-0.2,0.1-0.3,0.1-0.4l0.4-1.6c-0.1,0-0.3,0-0.4,0.1c-0.1,0.1-0.2,0.2-0.4,0.3c-0.1,0.1-0.2,0.2-0.3,0.4c-0.1,0.1-0.2,0.3-0.3,0.5
		s-0.2,0.4-0.2,0.6C40.9,11.5,40.8,11.6,40.8,11.8z"/>
	<path d="M44.6,12.3c0-0.1,0-0.3,0-0.5s0-0.4,0.1-0.6c0-0.2,0.1-0.4,0.1-0.6c0-0.2,0.1-0.5,0.1-0.7s0.1-0.5,0.2-0.6s0.1-0.3,0.1-0.4
		c0-0.1,0.1-0.1,0.1-0.2s0.1-0.1,0.1-0.1c0,0,0.1,0,0.1,0c0,0,0.1,0,0.2,0c0.1,0,0.2,0,0.2,0c0,0,0.1,0,0.1,0.1s0,0.1,0,0.1
		c0,0.1,0,0.1,0,0.2c0,0.1,0,0.3,0,0.5s0,0.4,0,0.6h0.1c0.1-0.1,0.1-0.3,0.2-0.5s0.2-0.4,0.3-0.5s0.2-0.3,0.4-0.4s0.3-0.1,0.5-0.1
		c0.1,0,0.1,0,0.2,0s0.1,0.1,0.2,0.1c0,0,0.1,0.1,0.1,0.1s0,0.1,0,0.2c0,0.1,0,0.1,0,0.2s0,0.2-0.1,0.4s-0.1,0.3-0.1,0.4
		s0,0.2,0,0.3c0,0.1,0,0.2,0,0.3s0.1,0.1,0.1,0.2c0,0,0.1,0.1,0.1,0.1c0,0,0.1,0,0.1,0c0.1,0,0.3,0,0.5-0.1s0.3-0.1,0.4-0.2
		c0.2-0.1,0.3-0.2,0.4-0.3l-0.1,1.1c-0.1,0.1-0.2,0.1-0.3,0.2s-0.2,0.1-0.3,0.2c-0.1,0.1-0.2,0.1-0.4,0.2c-0.1,0-0.3,0.1-0.4,0.1
		c-0.2,0-0.4,0-0.6-0.1c-0.1-0.1-0.3-0.2-0.4-0.4s-0.2-0.3-0.2-0.5s-0.1-0.4-0.1-0.6h-0.1l-0.9,2.4c0,0.1-0.1,0.2-0.1,0.3
		c0,0.1-0.1,0.2-0.1,0.2c0,0.1-0.1,0.1-0.1,0.1c0,0-0.1,0-0.2,0c-0.1,0-0.2,0-0.3-0.1c-0.1-0.1-0.1-0.1-0.2-0.2
		c0-0.1-0.1-0.2-0.1-0.3C44.7,12.6,44.6,12.5,44.6,12.3z"/>
</g>
</svg>
