<?xml version="1.0" encoding="utf-8"?>
<!-- Generator: Adobe Illustrator 19.2.1, SVG Export Plug-In . SVG Version: 6.00 Build 0)  -->
<svg version="1.1" id="Capa_1" onclick="play" xmlns="http://www.w3.org/2000/svg" xmlns:xlink="http://www.w3.org/1999/xlink"
	 x="0px" y="0px" viewBox="0 0 128 128" enable-background="new 0 0 128 128" xml:space="preserve">
<g>
	<path fill="#FFFFFF" d="M119.4,33.4c-5.7-9.8-13.5-17.6-23.3-23.3C86.3,4.4,75.6,1.6,64,1.6c-11.6,0-22.3,2.9-32.1,8.6
		c-9.8,5.7-17.6,13.5-23.3,23.3C2.9,43.2,0,54,0,65.6C0,79.5,4.1,92,12.2,103.2c8.1,11.1,18.7,18.8,31.5,23.1
		c1.5,0.3,2.6,0.1,3.3-0.6c0.7-0.7,1.1-1.5,1.1-2.5c0-0.2,0-1.7,0-4.5c0-2.8,0-5.3,0-7.4l-1.9,0.3c-1.2,0.2-2.8,0.3-4.6,0.3
		c-1.9,0-3.8-0.2-5.8-0.6c-2-0.4-3.9-1.2-5.6-2.5c-1.7-1.3-2.9-3-3.7-5.1l-0.8-1.9c-0.6-1.3-1.4-2.7-2.6-4.2
		c-1.2-1.6-2.4-2.6-3.6-3.2L18.8,94c-0.4-0.3-0.7-0.6-1.1-1c-0.3-0.4-0.6-0.8-0.7-1.2c-0.2-0.4,0-0.7,0.4-1c0.4-0.3,1.2-0.4,2.4-0.4
		l1.7,0.2c1.1,0.2,2.5,0.9,4.1,2c1.6,1.1,3,2.6,4,4.3c1.3,2.3,2.8,4,4.6,5.2c1.8,1.2,3.6,1.8,5.5,1.8s3.4-0.1,4.7-0.4
		c1.3-0.3,2.6-0.7,3.7-1.3c0.5-3.7,1.9-6.6,4.1-8.6c-3.2-0.3-6-0.8-8.5-1.5c-2.5-0.7-5.1-1.8-7.8-3.3c-2.7-1.5-4.9-3.4-6.7-5.6
		c-1.8-2.2-3.2-5.1-4.4-8.8c-1.1-3.6-1.7-7.8-1.7-12.5c0-6.7,2.2-12.4,6.6-17.2c-2.1-5.1-1.9-10.7,0.6-17c1.6-0.5,4-0.1,7.2,1.1
		c3.2,1.3,5.5,2.3,7,3.2c1.5,0.9,2.7,1.6,3.5,2.2c5.2-1.4,10.5-2.2,16-2.2s10.8,0.7,16,2.2l3.2-2c2.2-1.3,4.7-2.6,7.7-3.7
		c2.9-1.1,5.2-1.4,6.8-0.9c2.5,6.3,2.7,11.9,0.7,17c4.4,4.7,6.6,10.4,6.6,17.2c0,4.7-0.6,8.9-1.7,12.5c-1.1,3.6-2.6,6.6-4.4,8.8
		c-1.8,2.2-4.1,4-6.8,5.5c-2.7,1.5-5.3,2.6-7.8,3.3c-2.5,0.7-5.4,1.2-8.5,1.5c2.9,2.5,4.3,6.4,4.3,11.8v17.6c0,1,0.3,1.8,1,2.5
		c0.7,0.7,1.8,0.9,3.3,0.6c12.9-4.3,23.4-12,31.5-23.1C123.9,92,128,79.5,128,65.6C128,54,125.1,43.2,119.4,33.4z"/>
</g>
</svg>
