<?xml version="1.0" encoding="utf-8"?>
<!-- Generator: Adobe Illustrator 19.2.1, SVG Export Plug-In . SVG Version: 6.00 Build 0)  -->
<svg version="1.1" id="Capa_1" onclick="play" xmlns="http://www.w3.org/2000/svg" xmlns:xlink="http://www.w3.org/1999/xlink"
	 x="0px" y="0px" viewBox="0 0 128 128" enable-background="new 0 0 128 128" xml:space="preserve">
<g>
	<path fill="#FFFFFF" d="M64,0C28.7,0,0,28.7,0,64s28.7,64,64,64s64-28.7,64-64S99.3,0,64,0z M120,64c-15.5-4-29.1-4.2-40.8-2
		c-1.7-3.9-3.5-7.7-5.3-11.4c12.3-4.9,23.9-12.2,32.9-22.7C115,37.8,120,50.3,120,64C120,64,120,64,120,64z M101.2,22.3
		C93,32.1,82,38.8,70.2,43.4C62,27.8,54,16.1,49.5,10C54.2,8.7,59,8,64,8C78.3,8,91.3,13.5,101.2,22.3z M41.6,12.7
		c3.6,4.9,12.1,16.8,20.9,33.4c-21.9,6.8-44.2,7.2-53.4,7C12.7,35,25.1,20,41.6,12.7L41.6,12.7z M8,64c0-1,0.1-2,0.1-2.9
		c1.5,0,3.3,0.1,5.5,0.1c11.7,0,32.3-1.1,52.6-7.7c1.7,3.4,3.3,6.9,4.9,10.5c-26.9,8.1-42.5,28.5-48.4,37.9C13.7,91.9,8,78.6,8,64
		L8,64z M28.7,107.5c4.4-7.6,18.7-28.8,45.6-36.3C79.7,84.6,84.4,99.4,87,115c-7,3.2-14.8,5-23,5C50.6,120,38.4,115.3,28.7,107.5
		L28.7,107.5z M94.4,111c-2.7-14.8-7.1-28.8-12.1-41.5c10.6-1.7,22.9-1.2,37,2.7C117,88.4,107.6,102.4,94.4,111z"/>
</g>
</svg>
