<?xml version="1.0" encoding="utf-8"?>
<!-- Generator: Adobe Illustrator 19.2.1, SVG Export Plug-In . SVG Version: 6.00 Build 0)  -->
<svg version="1.1" id="Capa_1" onclick="play" xmlns="http://www.w3.org/2000/svg" xmlns:xlink="http://www.w3.org/1999/xlink"
	 x="0px" y="0px" viewBox="0 0 128 128" enable-background="new 0 0 128 128" xml:space="preserve">
<g>
	<path fill="#FFFFFF" d="M117,44.3H88.8V21.4c0-6-4.9-10.8-10.8-10.8H12c-6,0-10.8,4.9-10.8,10.8V61C1.2,67,6,71.9,12,71.9h6.4
		l8.1,10.8c0.5,0.8,1.4,1.1,2.3,1.1c0.9,0,1.7-0.5,2.3-1.1l8.1-10.8h1.2v22.9c0,6,4.9,10.8,10.8,10.8H90l8.1,10.8
		c0.5,0.8,1.4,1.1,2.3,1.1c0.9,0,1.7-0.5,2.3-1.1l8.1-10.8h6.4c6,0,10.8-4.9,10.8-10.8V55.1C128,49.1,123.1,44.3,117,44.3z
		 M37.6,66.2c-0.9,0-1.7,0.5-2.3,1.1l-6.7,8.8l-6.7-8.8c-0.5-0.8-1.4-1.1-2.3-1.1h-7.9c-2.9,0-5.2-2.3-5.2-5.2V21.4
		c0-2.9,2.3-5.2,5.2-5.2h66c2.9,0,5.2,2.3,5.2,5.2v25.8V61c0,2.9-2.3,5.2-5.2,5.2H43.1L37.6,66.2L37.6,66.2z M122.4,94.8
		c0,2.9-2.3,5.2-5.2,5.2h-7.9c-0.9,0-1.7,0.5-2.3,1.1l-6.7,8.8l-6.7-8.8c-0.5-0.8-1.4-1.1-2.3-1.1h-40c-2.9,0-5.2-2.3-5.2-5.2V71.9
		h31.9c2.1,0,4.1-0.6,5.8-1.7h21.4c1.5,0,2.7-1.2,2.7-2.7c0-1.5-1.2-2.7-2.7-2.7H88.3c0.5-1.1,0.6-2.3,0.6-3.7v-11h28.2
		c2.9,0,5.2,2.3,5.2,5.2L122.4,94.8L122.4,94.8z M107.7,83.2c0,1.5-1.2,2.7-2.7,2.7H63.4c-1.5,0-2.7-1.2-2.7-2.7s1.2-2.7,2.7-2.7
		H105C106.5,80.4,107.7,81.7,107.7,83.2z M65.4,52.2H24.1c-1.5,0-2.7-1.2-2.7-2.7s1.2-2.7,2.7-2.7h41.4c1.5,0,2.7,1.2,2.7,2.7
		C68.3,51,67,52.2,65.4,52.2z M21.3,33.6c0-1.5,1.2-2.7,2.7-2.7h24.9c1.5,0,2.7,1.2,2.7,2.7c0,1.5-1.2,2.7-2.7,2.7H24.1
		C22.5,36.3,21.3,35.1,21.3,33.6z"/>
</g>
</svg>
